<?xml version="1.0" standalone="no"?>
<!DOCTYPE svg PUBLIC "-//W3C//DTD SVG 20010904//EN"
 "http://www.w3.org/TR/2001/REC-SVG-20010904/DTD/svg10.dtd">
<svg version="1.0" xmlns="http://www.w3.org/2000/svg"
 width="960.000000pt" height="960.000000pt" viewBox="0 0 960.000000 960.000000"
 preserveAspectRatio="xMidYMid meet">
<metadata>
Created by potrace 1.11, written by Peter Selinger 2001-2013
</metadata>
<g transform="translate(0.000000,960.000000) scale(0.100000,-0.100000)"
fill="#000000" stroke="none">
<path d="M3897 7963 c-2 -2 -15 -6 -27 -8 -70 -13 -154 -50 -280 -122 -19 -11
-64 -36 -100 -55 -36 -20 -119 -66 -185 -103 -66 -37 -149 -83 -185 -103 -36
-19 -99 -54 -140 -77 -148 -83 -176 -98 -230 -128 -30 -16 -59 -33 -65 -37 -5
-4 -50 -29 -100 -55 -49 -27 -92 -51 -95 -54 -3 -4 -30 -19 -60 -34 -30 -15
-80 -42 -112 -60 -76 -43 -299 -167 -373 -207 -33 -18 -89 -50 -125 -70 -36
-21 -92 -52 -125 -70 -114 -63 -150 -83 -218 -121 -38 -22 -73 -39 -78 -39 -5
0 -9 -3 -9 -8 0 -4 -15 -14 -32 -21 -18 -8 -69 -36 -113 -61 -44 -25 -109 -62
-145 -80 -36 -19 -67 -37 -70 -40 -3 -3 -16 -11 -30 -18 -14 -6 -61 -32 -105
-56 -44 -25 -91 -51 -105 -59 -14 -7 -86 -47 -160 -89 -74 -41 -157 -88 -185
-103 -137 -76 -212 -149 -279 -268 -21 -37 -35 -67 -31 -67 4 0 3 -6 -2 -12
-6 -7 -11 -20 -11 -28 -1 -8 -5 -42 -9 -75 -4 -33 -8 -454 -7 -935 0 -870 5
-997 35 -1016 5 -3 9 -12 9 -20 0 -24 67 -122 118 -173 54 -55 106 -91 217
-153 44 -25 100 -56 125 -70 25 -14 90 -50 145 -80 173 -95 198 -110 258 -144
32 -19 60 -34 62 -34 2 0 41 -21 87 -48 46 -26 94 -53 108 -60 14 -6 32 -16
40 -22 8 -6 49 -29 90 -51 179 -98 205 -112 234 -130 17 -10 63 -34 101 -55
39 -20 76 -41 82 -46 7 -6 36 -23 65 -38 29 -15 73 -39 98 -53 25 -14 66 -37
91 -50 25 -14 63 -35 85 -47 47 -27 131 -73 199 -110 28 -15 74 -42 103 -59
29 -17 55 -31 57 -31 2 0 26 -13 52 -28 26 -16 84 -48 128 -72 119 -64 118
-64 133 -77 7 -7 17 -13 22 -13 7 0 185 -96 240 -130 8 -5 36 -21 63 -35 26
-14 143 -79 260 -144 335 -187 344 -191 442 -217 171 -45 352 -4 478 106 41
36 132 159 132 178 0 4 3 12 6 17 19 31 38 103 46 175 8 74 8 5463 0 5518 -23
147 -83 264 -187 360 -37 35 -156 97 -205 108 -34 8 -222 14 -228 7z m181
-342 c44 -22 75 -57 100 -111 14 -32 16 -211 18 -1905 1 -2008 3 -1926 -47
-1997 -47 -66 -147 -92 -238 -61 -37 12 -242 122 -551 296 -19 11 -60 33 -90
50 -85 46 -126 69 -260 144 -30 17 -165 92 -300 167 -135 75 -252 140 -260
145 -8 6 -35 21 -60 34 -25 12 -72 38 -105 57 -33 18 -76 42 -95 53 -19 10
-109 61 -200 112 -91 51 -192 107 -225 124 -33 18 -73 40 -90 50 -16 10 -59
34 -95 53 -122 67 -195 108 -210 118 -8 5 -35 20 -60 33 -25 13 -98 53 -164
90 -65 37 -122 67 -126 67 -5 0 -10 3 -12 8 -2 4 -19 15 -38 24 -37 18 -66 34
-297 165 -27 15 -65 36 -85 47 -93 49 -157 138 -153 212 3 46 40 111 82 143
15 11 33 24 38 29 18 15 174 100 195 107 11 3 20 11 20 16 0 5 4 9 9 9 5 0 81
40 168 88 87 49 190 105 228 127 39 21 104 57 146 81 42 24 81 44 87 44 7 0
12 5 12 10 0 6 4 10 9 10 5 0 57 27 115 60 58 33 110 60 116 60 5 0 10 3 10 8
0 4 10 12 23 18 38 18 266 143 282 154 6 4 42 24 80 45 39 21 88 49 110 61 22
12 74 40 115 63 41 22 82 45 90 51 8 5 31 17 50 26 19 10 43 24 53 32 9 8 17
11 17 6 0 -5 4 -4 8 1 7 11 17 16 117 70 35 19 87 48 115 65 28 16 52 30 54
30 2 0 33 16 68 36 101 58 231 130 315 175 43 24 80 46 81 51 2 4 8 8 14 8 6
0 49 22 97 49 47 27 106 60 131 73 25 14 107 60 183 102 77 43 165 90 197 105
75 36 153 40 208 12z m-3565 -2983 c26 -15 52 -28 57 -28 6 0 10 -4 10 -8 0
-4 20 -16 45 -26 25 -11 45 -23 45 -28 0 -5 4 -7 9 -3 5 3 12 1 15 -4 3 -5 28
-20 54 -34 26 -14 65 -35 85 -46 83 -47 104 -59 157 -88 30 -17 91 -51 135
-75 127 -71 176 -98 245 -136 81 -44 102 -56 220 -123 139 -78 210 -117 250
-137 19 -9 37 -20 40 -23 4 -4 109 -63 295 -164 22 -12 76 -42 120 -67 44 -25
107 -60 140 -78 33 -18 80 -44 105 -58 25 -14 173 -96 330 -183 157 -87 290
-163 297 -169 7 -5 15 -10 19 -10 4 0 41 -20 83 -44 42 -24 117 -65 166 -91
50 -26 97 -53 105 -59 15 -12 76 -45 183 -97 130 -65 320 -85 424 -46 23 9 44
13 47 9 2 -4 3 -104 2 -222 -3 -192 -5 -220 -23 -260 -49 -106 -134 -145 -248
-113 -27 8 -95 40 -150 70 -55 31 -122 68 -150 83 -47 26 -458 254 -537 298
-21 12 -68 38 -105 58 -37 21 -90 50 -116 66 -26 15 -50 28 -52 28 -2 0 -42
23 -90 50 -48 28 -88 50 -90 50 -2 0 -42 22 -90 50 -48 28 -88 50 -90 50 -2 0
-26 13 -52 28 -26 16 -79 45 -116 66 -37 20 -84 46 -105 58 -59 33 -145 80
-174 95 -15 8 -30 19 -33 24 -4 5 -10 7 -15 4 -4 -3 -13 2 -20 10 -7 8 -18 15
-25 15 -8 0 -15 4 -17 8 -1 4 -28 20 -58 35 -30 16 -68 36 -85 46 -16 10 -55
31 -85 48 -30 16 -95 53 -145 80 -49 28 -108 60 -130 73 -22 12 -58 32 -80 43
-22 12 -48 28 -57 36 -10 8 -18 11 -18 8 0 -4 -16 5 -36 18 -20 14 -43 25 -50
25 -8 0 -14 4 -14 9 0 5 -8 11 -17 14 -10 3 -40 19 -68 35 -27 15 -79 45 -115
64 -130 71 -195 108 -210 118 -8 5 -31 17 -50 27 -68 33 -144 82 -177 114 -65
61 -67 70 -69 321 -1 255 -9 237 79 186z"/>
<path d="M5415 7954 c-106 -28 -175 -70 -253 -153 -44 -47 -117 -183 -126
-236 -3 -16 -9 -50 -14 -75 -10 -55 -8 -5499 2 -5555 24 -127 87 -246 173
-325 144 -133 345 -169 544 -98 53 19 246 120 447 234 20 11 64 35 97 54 33
18 95 52 137 76 43 24 82 44 88 44 5 0 10 5 10 10 0 6 4 10 9 10 8 0 169 86
221 118 14 9 25 14 25 11 0 -2 14 6 31 18 17 13 42 27 55 33 13 6 45 22 70 38
74 43 218 122 224 122 3 0 11 5 18 10 12 11 575 325 747 417 47 25 90 49 95
53 6 5 35 21 65 38 30 16 75 41 100 55 25 13 115 63 200 110 85 48 160 90 166
94 5 4 30 19 55 31 71 38 191 104 224 123 17 10 46 26 65 36 19 9 37 19 40 22
3 4 23 15 45 27 151 78 219 122 286 186 82 78 131 162 158 273 18 71 18 1868
0 1940 -23 95 -69 176 -144 250 -87 87 -103 99 -200 149 -22 12 -42 23 -45 26
-5 5 -10 8 -90 50 -25 14 -53 31 -62 39 -10 8 -18 11 -18 7 0 -4 -12 1 -27 12
-25 16 -77 46 -208 117 -71 39 -90 50 -107 64 -10 8 -18 11 -18 7 0 -4 -12 1
-27 12 -16 10 -57 35 -93 54 -141 78 -169 93 -275 153 -60 34 -139 78 -175 97
-36 19 -138 76 -228 127 -90 50 -167 91 -172 91 -5 0 -10 3 -12 8 -1 4 -16 14
-33 23 -75 39 -140 74 -145 79 -3 3 -30 18 -60 34 -30 16 -68 37 -85 46 -64
35 -261 146 -277 155 -9 6 -38 21 -65 35 -26 14 -49 28 -51 33 -2 4 -8 7 -13
7 -5 0 -44 20 -87 44 -42 23 -99 56 -127 71 -56 31 -196 109 -265 148 -25 13
-106 58 -180 100 -74 41 -153 85 -175 97 -120 69 -229 117 -275 122 -14 2 -29
6 -35 10 -18 11 -179 6 -230 -8z m200 -324 c11 0 94 -40 183 -90 90 -49 167
-90 173 -90 5 0 9 -4 9 -8 0 -4 12 -13 28 -19 15 -7 52 -26 82 -43 150 -86
231 -130 240 -130 5 0 10 -4 10 -10 0 -5 4 -10 9 -10 8 0 224 -116 261 -140 8
-6 26 -16 40 -22 14 -7 58 -32 98 -55 40 -24 74 -43 77 -43 2 0 30 -15 62 -34
61 -35 121 -69 213 -119 30 -17 86 -47 123 -69 38 -21 73 -38 77 -38 5 0 10
-3 12 -7 2 -5 23 -18 48 -31 25 -13 59 -31 77 -42 17 -10 67 -38 110 -61 111
-60 117 -63 123 -69 3 -3 18 -12 35 -20 16 -8 91 -49 165 -91 74 -42 171 -95
215 -119 44 -24 94 -51 110 -61 17 -10 51 -29 76 -42 25 -14 63 -35 85 -47
129 -74 197 -110 205 -110 5 0 9 -4 9 -9 0 -5 8 -11 18 -14 16 -5 96 -49 188
-102 22 -13 65 -37 95 -52 168 -89 214 -137 235 -242 4 -23 -31 -107 -57 -134
-27 -27 -105 -82 -141 -97 -13 -6 -39 -20 -58 -31 -19 -12 -56 -33 -83 -46
-26 -14 -50 -29 -53 -34 -3 -5 -14 -9 -25 -9 -10 0 -19 -3 -19 -8 0 -4 -35
-25 -77 -47 -43 -22 -80 -43 -83 -46 -3 -3 -43 -26 -90 -51 -47 -25 -103 -55
-125 -68 -119 -67 -196 -110 -250 -140 -33 -18 -87 -48 -120 -67 -33 -18 -76
-41 -95 -51 -19 -9 -37 -20 -40 -23 -3 -3 -43 -26 -90 -51 -47 -25 -110 -60
-140 -77 -30 -18 -66 -37 -80 -44 -14 -6 -27 -14 -30 -17 -3 -3 -23 -14 -45
-25 -22 -11 -56 -29 -75 -41 -19 -11 -62 -36 -95 -54 -33 -18 -114 -63 -180
-100 -179 -100 -235 -130 -290 -159 -27 -14 -52 -28 -55 -32 -8 -9 -213 -119
-222 -119 -4 0 -8 -3 -8 -8 0 -4 -15 -14 -32 -21 -18 -8 -58 -29 -88 -47 -73
-42 -146 -82 -195 -108 -22 -12 -42 -23 -45 -26 -3 -3 -16 -11 -30 -17 -26
-13 -117 -63 -210 -116 -112 -64 -234 -127 -260 -135 -34 -9 -115 -9 -144 1
-56 19 -101 74 -124 150 -12 40 -13 3727 -1 3782 13 56 67 130 108 147 37 16
114 25 126 16 5 -4 18 -8 30 -8z m3489 -3172 c-1 -117 -4 -224 -8 -237 -9 -38
-57 -92 -117 -132 -53 -35 -85 -54 -219 -127 -36 -19 -78 -43 -95 -52 -16 -10
-51 -29 -77 -44 -61 -33 -112 -61 -273 -151 -169 -94 -182 -101 -300 -167 -55
-30 -122 -68 -150 -83 -27 -16 -72 -40 -100 -54 -27 -14 -52 -29 -55 -32 -5
-6 -196 -110 -215 -118 -5 -2 -12 -7 -15 -10 -3 -3 -32 -19 -65 -36 -33 -16
-62 -32 -65 -36 -8 -9 -213 -119 -222 -119 -4 0 -8 -3 -8 -8 0 -4 -14 -13 -31
-21 -17 -7 -72 -37 -122 -65 -51 -29 -121 -68 -157 -88 -72 -39 -111 -61 -278
-155 -63 -35 -116 -63 -118 -63 -2 0 -21 -10 -42 -23 -20 -13 -62 -37 -92 -54
-30 -16 -121 -66 -201 -111 -81 -45 -151 -82 -157 -82 -6 0 -12 -4 -14 -8 -3
-9 -207 -122 -220 -122 -4 0 -8 -5 -8 -12 0 -6 -3 -9 -6 -5 -3 3 -25 -2 -47
-12 -74 -30 -172 -11 -221 43 -10 12 -28 41 -40 66 -18 40 -21 67 -24 267 -4
228 -3 234 34 211 20 -13 70 -21 154 -23 145 -5 227 24 485 170 113 64 227
127 280 155 17 9 41 23 55 32 14 8 59 34 100 56 41 22 109 59 150 82 41 23
109 60 150 83 41 22 92 51 112 64 21 13 39 23 41 23 2 0 53 28 113 61 60 34
134 75 164 92 30 16 89 49 130 72 41 23 82 45 90 49 8 4 24 12 35 19 18 11
104 59 192 108 18 10 63 35 100 55 37 20 94 52 126 70 32 19 62 34 67 34 4 0
10 3 12 8 2 4 32 22 68 41 36 19 72 40 81 48 9 7 18 11 21 8 3 -3 11 1 18 10
7 8 16 15 20 15 4 0 60 29 124 65 64 36 121 65 126 65 6 0 10 5 10 10 0 6 4
10 8 10 5 0 56 27 115 59 192 108 222 124 262 145 22 12 42 24 45 27 3 4 25
16 50 28 53 26 123 64 130 71 11 11 85 48 90 45 3 -2 5 -99 4 -217z"/>
</g>
</svg>
