<?xml version="1.0" encoding="UTF-8" standalone="no"?>
<svg width="108px" height="24px" viewBox="0 0 108 24" version="1.1" xmlns="http://www.w3.org/2000/svg" xmlns:xlink="http://www.w3.org/1999/xlink">
    <g id="Freelunch" transform="translate(1.000000, 4.000000)">
        <path d="M9.58863304,3.37057031 L9.58863304,3.37057031 L9.58863304,4.6503776 L9.58863304,8.8657826 L9.58863304,9.9979717 C9.58863304,10.3785799 9.39388522,10.6011635 9.11362435,10.6011635 C9.00419826,10.6011635 8.88157217,10.5670533 8.75225043,10.495364 L1.11021565,6.24719783 C0.650128696,5.99146763 0.650128696,5.57308762 1.11021565,5.31735742 L8.75225043,1.06938392 C8.88157217,0.997501957 9.00419826,0.963584463 9.11362435,0.963584463 C9.39407652,0.963584463 9.58863304,1.18616802 9.58863304,1.56677627 L9.58863304,3.37057031 Z M9.58863304,13.0813803 C9.58863304,13.4619886 9.39407652,13.6847648 9.11362435,13.6847648 C9.00419826,13.6847648 8.88157217,13.6506546 8.75225043,13.5787727 L1.11021565,9.33079916 C0.880076522,9.2028377 0.765102609,9.03421379 0.765293913,8.8657826 L0.765293913,8.8657826 L0.765293913,7.89951942 L8.38265043,12.134003 C8.62350261,12.2677459 8.86952,12.3355808 9.11362435,12.3355808 C9.28484174,12.3355808 9.44419826,12.3020488 9.58863304,12.2413442 L9.58863304,13.0813803 Z M10.3538504,1.56677627 C10.3538504,0.770678711 9.83235478,0.19273231 9.11362435,0.19273231 C8.8693287,0.19273231 8.6233113,0.260567299 8.38245913,0.394502861 L0.740615652,4.64247636 C0.269815652,4.90418067 7.65217392e-05,5.31966998 7.65217392e-05,5.78237398 L7.65217392e-05,5.7825667 L7.65217392e-05,8.86558988 L7.65217392e-05,8.86597531 L7.65217392e-05,8.86636073 L7.65217392e-05,9.8295405 C7.65217392e-05,10.2924372 0.270006957,10.7077338 0.740615652,10.9694381 L8.38265043,15.2174116 C8.62350261,15.3513472 8.86952,15.4191822 9.11362435,15.4191822 C9.83235478,15.4191822 10.3538504,14.8412358 10.3538504,14.0451382 L10.3538504,10.9619223 L10.3538504,10.9617296 L10.3538504,2.53053418 L10.3538504,2.52995604 L10.3538504,1.56677627 Z" id="Fill-1"></path>
        <path d="M20.7453304,6.24727492 L13.1032957,10.4952484 C12.9739739,10.5671304 12.8515391,10.6012406 12.7419217,10.6012406 C12.4616609,10.6012406 12.2671043,10.3784643 12.266913,9.99804878 L12.266913,8.86566697 L12.266913,4.65045468 L12.266913,3.3706474 L12.266913,3.3706474 L12.266913,1.56685336 C12.266913,1.18624511 12.4614696,0.963661548 12.7419217,0.963661548 C12.8513478,0.963661548 12.9741652,0.997579042 13.1032957,1.06946101 L20.7453304,5.31743451 C21.2054174,5.57316471 21.2054174,5.99154472 20.7453304,6.24727492 L20.7453304,6.24727492 Z M21.0902522,8.86566697 L21.0902522,8.86566697 C21.0904435,9.03429088 20.9754696,9.20291478 20.7453304,9.33087624 L13.1032957,13.5788497 C12.9739739,13.6507317 12.8515391,13.6846492 12.7419217,13.6846492 C12.4614696,13.6846492 12.266913,13.4620656 12.266913,13.0814574 L12.266913,12.2414213 C12.4113478,12.3019332 12.5707043,12.3356579 12.7419217,12.3356579 C12.9860261,12.3356579 13.2320435,12.2678229 13.4728957,12.1338874 L21.0902522,7.89959651 L21.0902522,8.86566697 Z M21.8554696,8.86566697 L21.8554696,5.78264378 L21.8554696,5.78245107 C21.8554696,5.31955435 21.5857304,4.90425775 21.1151217,4.64255345 L13.473087,0.394579946 C13.2322348,0.260644384 12.9862174,0.192809395 12.7419217,0.192809395 C12.0231913,0.192809395 11.5016957,0.770563083 11.5016957,1.56685336 L11.5016957,2.53003312 L11.5016957,2.53041855 L11.5016957,10.961614 L11.5016957,10.9618067 L11.5016957,14.0452153 C11.5016957,14.8413129 12.0231913,15.4192593 12.7419217,15.4192593 C12.9860261,15.4192593 13.2320435,15.3514243 13.473087,15.2174887 L21.1149304,10.9695152 C21.5855391,10.7078109 21.8554696,10.2923216 21.8554696,9.82961759 L21.8554696,8.86624511 L21.8554696,8.86585968 L21.8554696,8.86566697 L21.8554696,8.86566697 Z" id="Fill-3" mask="url(#mask-2)"></path>
    </g>
    <g id="Group" transform="translate(30.000000, 7.000000)" >
        <path d="M0.583090491,9.22666667 C0.583090491,9.52 0.729996166,9.66666667 1.02380752,9.66666667 L1.45116948,9.66666667 C1.74498083,9.66666667 1.8918865,9.52 1.8918865,9.22666667 L1.8918865,5.64 L4.74986963,5.64 C5.04368098,5.64 5.19058666,5.49333333 5.19058666,5.2 L5.19058666,4.93333333 C5.19058666,4.65333333 5.04368098,4.49333333 4.74986963,4.49333333 L1.8918865,4.49333333 L1.8918865,1.4 L5.33749233,1.4 C5.61794862,1.4 5.77820936,1.24 5.77820936,0.96 L5.77820936,0.693333333 C5.77820936,0.4 5.61794862,0.253333333 5.33749233,0.253333333 L1.02380752,0.253333333 C0.729996166,0.253333333 0.583090491,0.4 0.583090491,0.693333333 L0.583090491,9.22666667 Z M6.80654908,9.22666667 C6.80654908,9.52 6.96680982,9.66666667 7.2472661,9.66666667 L7.66127301,9.66666667 C7.95508436,9.66666667 8.10199003,9.52 8.10199003,9.22666667 L8.10199003,6.88 C8.10199003,5.54666667 8.74303298,4.12 10.065184,4.12 C10.3723505,4.12 10.5459663,3.97333333 10.5459663,3.68 L10.5459663,3.30666667 C10.5459663,3.01333333 10.4257707,2.86666667 10.1186043,2.86666667 C9.10361963,2.86666667 8.34238113,3.74666667 8.04856979,4.64 L8.02185966,4.64 C8.02185966,4.64 8.06192485,4.41333333 8.06192485,4.13333333 L8.06192485,3.36 C8.06192485,3.06666667 7.91501917,2.92 7.62120782,2.92 L7.2472661,2.92 C6.96680982,2.92 6.80654908,3.06666667 6.80654908,3.36 L6.80654908,9.22666667 Z M10.919908,6.29333333 C10.919908,8.29333333 12.3756097,9.82666667 14.4990644,9.82666667 C15.5808244,9.82666667 16.3821281,9.38666667 16.7827799,9.10666667 C17.009816,8.97333333 17.0498811,8.74666667 16.9163305,8.52 L16.796135,8.32 C16.6492293,8.06666667 16.4489034,8.04 16.1951572,8.17333333 C15.8879908,8.4 15.3137232,8.70666667 14.5791948,8.70666667 C13.3772393,8.70666667 12.3221894,7.89333333 12.242059,6.42666667 L16.7560698,6.42666667 C17.023171,6.42666667 17.2101419,6.21333333 17.2101419,5.97333333 C17.2101419,4.09333333 16.1684471,2.76 14.2987385,2.76 C12.3756097,2.76 10.919908,4.14666667 10.919908,6.29333333 L10.919908,6.29333333 Z M12.2954793,5.57333333 C12.4824502,4.44 13.2837538,3.77333333 14.2720284,3.77333333 C15.1668175,3.77333333 15.8746357,4.38666667 15.9147009,5.57333333 L12.2954793,5.57333333 Z M18.1984164,6.29333333 C18.1984164,8.29333333 19.6541181,9.82666667 21.7775729,9.82666667 C22.8593328,9.82666667 23.6606365,9.38666667 24.0612883,9.10666667 C24.2883244,8.97333333 24.3283896,8.74666667 24.194839,8.52 L24.0746434,8.32 C23.9277377,8.06666667 23.7274118,8.04 23.4736656,8.17333333 C23.1664992,8.4 22.5922316,8.70666667 21.8577032,8.70666667 C20.6557477,8.70666667 19.6006979,7.89333333 19.5205675,6.42666667 L24.0345782,6.42666667 C24.3016794,6.42666667 24.4886503,6.21333333 24.4886503,5.97333333 C24.4886503,4.09333333 23.4469555,2.76 21.5772469,2.76 C19.6541181,2.76 18.1984164,4.14666667 18.1984164,6.29333333 L18.1984164,6.29333333 Z M19.5739877,5.57333333 C19.7609586,4.44 20.5622623,3.77333333 21.5505368,3.77333333 C22.4453259,3.77333333 23.1531442,4.38666667 23.1932094,5.57333333 L19.5739877,5.57333333 Z M26.0912577,9.22666667 C26.0912577,9.52 26.2381633,9.66666667 26.5319747,9.66666667 L31.1928911,9.66666667 C31.4733474,9.66666667 31.6336081,9.52 31.6336081,9.22666667 L31.6336081,8.96 C31.6336081,8.66666667 31.4733474,8.52 31.1928911,8.52 L27.4000537,8.52 L27.4000537,0.693333333 C27.4000537,0.4 27.253148,0.253333333 26.9593367,0.253333333 L26.5319747,0.253333333 C26.2381633,0.253333333 26.0912577,0.4 26.0912577,0.693333333 L26.0912577,9.22666667 Z M32.474977,7.24 C32.474977,9.02666667 33.2495706,9.82666667 34.7720475,9.82666667 C36.0941986,9.82666667 36.9889877,8.90666667 37.2827991,8.24 L37.3095092,8.24 C37.3095092,8.24 37.269444,8.42666667 37.269444,8.62666667 L37.269444,9.22666667 C37.269444,9.52 37.4163497,9.66666667 37.710161,9.66666667 L38.0841028,9.66666667 C38.364559,9.66666667 38.5248198,9.52 38.5248198,9.22666667 L38.5248198,3.36 C38.5248198,3.06666667 38.364559,2.92 38.0841028,2.92 L37.6700959,2.92 C37.3762845,2.92 37.2293788,3.06666667 37.2293788,3.36 L37.2293788,6.08 C37.2293788,7.41333333 36.4147201,8.62666667 35.0257937,8.62666667 C33.9573888,8.62666667 33.7570629,7.88 33.7570629,6.94666667 L33.7570629,3.36 C33.7570629,3.06666667 33.6101572,2.92 33.3297009,2.92 L32.915694,2.92 C32.6218827,2.92 32.474977,3.06666667 32.474977,3.36 L32.474977,7.24 Z M40.3945284,9.22666667 C40.3945284,9.52 40.5547891,9.66666667 40.8352454,9.66666667 L41.2492523,9.66666667 C41.5430637,9.66666667 41.6899693,9.52 41.6899693,9.22666667 L41.6899693,6.44 C41.6899693,5.04 42.6381787,3.94666667 43.9469747,3.94666667 C45.0287347,3.94666667 45.2157055,4.69333333 45.2157055,5.64 L45.2157055,9.22666667 C45.2157055,9.52 45.3759663,9.66666667 45.6564225,9.66666667 L46.0704294,9.66666667 C46.3642408,9.66666667 46.5111465,9.52 46.5111465,9.22666667 L46.5111465,5.34666667 C46.5111465,3.62666667 45.7899732,2.76 44.2007209,2.76 C42.718309,2.76 41.9036503,3.76 41.6365491,4.34666667 L41.609839,4.34666667 C41.609839,4.34666667 41.6499041,4.16 41.6499041,3.96 L41.6499041,3.36 C41.6499041,3.06666667 41.5029985,2.92 41.2091871,2.92 L40.8352454,2.92 C40.5547891,2.92 40.3945284,3.06666667 40.3945284,3.36 L40.3945284,9.22666667 Z M47.8466526,6.29333333 C47.8466526,8.32 49.3290644,9.82666667 51.4525192,9.82666667 C52.6678298,9.82666667 53.4824885,9.30666667 53.8564302,9 C54.0701112,8.85333333 54.1101764,8.64 53.9766258,8.41333333 L53.8697853,8.21333333 C53.7095245,7.96 53.5091986,7.93333333 53.2688075,8.09333333 C52.948286,8.33333333 52.3606633,8.70666667 51.5460046,8.70666667 C50.1570782,8.70666667 49.1688037,7.65333333 49.1688037,6.28 C49.1688037,4.89333333 50.1570782,3.88 51.5192945,3.88 C52.2271127,3.88 52.7479601,4.18666667 53.0284164,4.38666667 C53.2821626,4.53333333 53.4691334,4.52 53.6293942,4.28 L53.7629448,4.08 C53.9232055,3.85333333 53.9098505,3.62666667 53.6828144,3.48 C53.3222278,3.2 52.5876994,2.76 51.4525192,2.76 C49.3424195,2.76 47.8466526,4.29333333 47.8466526,6.29333333 L47.8466526,6.29333333 Z M55.3922623,9.22666667 C55.3922623,9.52 55.5391679,9.66666667 55.8329793,9.66666667 L56.2469862,9.66666667 C56.5274425,9.66666667 56.6743482,9.52 56.6743482,9.22666667 L56.6743482,6.46666667 C56.6743482,5.01333333 57.6359126,3.94666667 58.9313535,3.94666667 C60.0131135,3.94666667 60.2134394,4.69333333 60.2134394,5.64 L60.2134394,9.22666667 C60.2134394,9.52 60.3603451,9.66666667 60.6541564,9.66666667 L61.0681633,9.66666667 C61.3486196,9.66666667 61.5088804,9.52 61.5088804,9.22666667 L61.5088804,5.34666667 C61.5088804,3.62666667 60.774352,2.76 59.1850997,2.76 C57.8362385,2.76 56.9548044,3.65333333 56.6609931,4.30666667 L56.634283,4.30666667 C56.634283,4.30666667 56.6743482,4.06666667 56.6743482,3.74666667 L56.6743482,0.693333333 C56.6743482,0.4 56.5274425,0.253333333 56.2469862,0.253333333 L55.8329793,0.253333333 C55.5391679,0.253333333 55.3922623,0.4 55.3922623,0.693333333 L55.3922623,9.22666667 Z M66.3033474,4.90666667 C66.3033474,7.66666667 68.2131212,9.82666667 71.1245245,9.82666667 C72.8473275,9.82666667 73.9958627,9.02666667 74.4766449,8.62666667 C74.6903259,8.44 74.703681,8.22666667 74.5434202,8.01333333 L74.3430943,7.74666667 C74.1694785,7.52 73.9557975,7.52 73.7287615,7.69333333 C73.3147546,8.01333333 72.4066104,8.61333333 71.1645897,8.61333333 C68.9877147,8.61333333 67.6655637,6.89333333 67.6655637,4.89333333 C67.6655637,2.90666667 68.9610046,1.30666667 71.1512347,1.30666667 C72.2864149,1.30666667 73.1144287,1.78666667 73.5150805,2.05333333 C73.7688267,2.21333333 73.9691526,2.18666667 74.1294133,1.94666667 L74.3030291,1.68 C74.4499348,1.44 74.4365798,1.22666667 74.2228988,1.06666667 C73.7554716,0.72 72.7137768,0.0933333333 71.0978144,0.0933333333 C68.2798965,0.0933333333 66.3033474,2.17333333 66.3033474,4.90666667 L66.3033474,4.90666667 Z M76.3329985,9.22666667 C76.3329985,9.52 76.4799041,9.66666667 76.7737155,9.66666667 L77.2010775,9.66666667 C77.4948888,9.66666667 77.6417945,9.52 77.6417945,9.22666667 L77.6417945,0.693333333 C77.6417945,0.4 77.4948888,0.253333333 77.2010775,0.253333333 L76.7737155,0.253333333 C76.4799041,0.253333333 76.3329985,0.4 76.3329985,0.693333333 L76.3329985,9.22666667 Z" id="FreeLunch-CI"></path>
    </g>
    <rect id="Rectangle-58" x="0" y="0" width="108" height="24" fill="none"></rect>
</svg>