
<svg width="46px" height="31px" viewBox="1 8 46 31" version="1.1" xmlns="http://www.w3.org/2000/svg">
  <path d="M20.3333333,32.8333333 L13.9166667,26.4166667 L16.5016667,23.8133333 L20.3333333,27.645 L29.83,18.1666667 L32.415,20.7516667 L20.3333333,32.8333333 Z M37.475,20.055 C36.2283333,13.7483333 30.6733333,9 24,9 C18.7016667,9 14.1,12.0066667 11.8083333,16.3883333 C6.29,16.9933333 2,21.65 2,27.3333333 C2,33.4084656 6.92486775,38.3333333 13,38.3333333 L36.8333333,38.3333333 C39.2644845,38.3333333 41.596062,37.3675623 43.3151455,35.6484788 C45.034229,33.9293954 46,31.5978178 46,29.1666667 C46,24.3266667 42.2416667,20.4033333 37.475,20.055 L37.475,20.055 Z" id="Shape" stroke="#011E30" stroke-width="1" fill="none"></path>
</svg>
