
<svg width="42px" height="41px" viewBox="3 3 42 41" version="1.1" xmlns="http://www.w3.org/2000/svg">
  <path d="M24,4 C12.96,4 4,12.96 4,24 C4,32.84 9.74,40.34 17.68,43 C18.68,43.16 19,42.54 19,42 L19,38.62 C13.46,39.82 12.28,35.94 12.28,35.94 C11.36,33.62 10.06,33 10.06,33 C8.24,31.76 10.2,31.8 10.2,31.8 C12.2,31.94 13.26,33.86 13.26,33.86 C15,36.9 17.94,36 19.08,35.52 C19.26,34.22 19.78,33.34 20.34,32.84 C15.9,32.34 11.24,30.62 11.24,23 C11.24,20.78 12,19 13.3,17.58 C13.1,17.08 12.4,15 13.5,12.3 C13.5,12.3 15.18,11.76 19,14.34 C20.58,13.9 22.3,13.68 24,13.68 C25.7,13.68 27.42,13.9 29,14.34 C32.82,11.76 34.5,12.3 34.5,12.3 C35.6,15 34.9,17.08 34.7,17.58 C36,19 36.76,20.78 36.76,23 C36.76,30.64 32.08,32.32 27.62,32.82 C28.34,33.44 29,34.66 29,36.52 L29,42 C29,42.54 29.32,43.18 30.34,43 C38.28,40.32 44,32.84 44,24 C44,12.96 35.04,4 24,4 L24,4 Z" id="Shape" stroke="#011E30" stroke-width="1" fill="none"></path>
</svg>
