<svg viewBox="26 24 145 33" version="1.1" xmlns="http://www.w3.org/2000/svg" xmlns:xlink="http://www.w3.org/1999/xlink">
  <defs>
    <polygon id="path-1" points="15.3355942 20.5589096 29.1406261 20.5589096 29.1406261 0.257079193 15.3355942 0.257079193"></polygon>
  </defs>
  <g id="Logo" stroke="none" stroke-width="1" fill="none" fill-rule="evenodd" transform="translate(26.000000, 24.000000)">
    <g id="Freelunch" transform="translate(1.333333, 5.333333)">
      <path d="M12.7848441,4.49409375 L12.7848441,4.49409375 L12.7848441,6.20050346 L12.7848441,11.8210435 L12.7848441,13.3306289 C12.7848441,13.8381066 12.5251803,14.1348847 12.1514991,14.1348847 C12.0055977,14.1348847 11.8420962,14.0894044 11.6696672,13.9938187 L1.48028754,8.32959711 C0.866838261,7.98862351 0.866838261,7.4307835 1.48028754,7.0898099 L11.6696672,1.42584523 C11.8420962,1.33000261 12.0055977,1.28477928 12.1514991,1.28477928 C12.5254354,1.28477928 12.7848441,1.58155736 12.7848441,2.08903503 L12.7848441,4.49409375 Z M12.7848441,17.4418404 C12.7848441,17.9493181 12.5254354,18.2463531 12.1514991,18.2463531 C12.0055977,18.2463531 11.8420962,18.2008728 11.6696672,18.1050302 L1.48028754,12.4410655 C1.17343536,12.2704503 1.02013681,12.0456184 1.02039188,11.8210435 L1.02039188,11.8210435 L1.02039188,10.5326926 L11.1768672,16.1786707 C11.4980035,16.3569945 11.8260267,16.4474411 12.1514991,16.4474411 C12.379789,16.4474411 12.5922643,16.4027317 12.7848441,16.3217922 L12.7848441,17.4418404 Z M13.8051339,2.08903503 C13.8051339,1.02757161 13.1098064,0.256976413 12.1514991,0.256976413 C11.8257716,0.256976413 11.4977484,0.347423065 11.1766122,0.526003814 L0.987487536,6.18996848 C0.359754203,6.53890756 0.000102028986,7.09289331 0.000102028986,7.70983198 L0.000102028986,7.71008893 L0.000102028986,11.8207865 L0.000102028986,11.8213004 L0.000102028986,11.8218143 L0.000102028986,13.106054 C0.000102028986,13.7232496 0.360009275,14.2769784 0.987487536,14.6259175 L11.1768672,20.2898822 C11.4980035,20.4684629 11.8260267,20.5589096 12.1514991,20.5589096 C13.1098064,20.5589096 13.8051339,19.7883144 13.8051339,18.7268509 L13.8051339,14.6158964 L13.8051339,14.6156395 L13.8051339,3.37404557 L13.8051339,3.37327472 L13.8051339,2.08903503 Z" id="Fill-1" fill="#011E30"></path>
      <mask id="mask-2" fill="white">
        <use xlink:href="#path-1"></use>
      </mask>
      <g id="Clip-4"></g>
      <path d="M27.6604406,8.32969989 L17.4710609,13.9936646 C17.2986319,14.0895072 17.1353855,14.1349875 16.989229,14.1349875 C16.6155478,14.1349875 16.3561391,13.8379524 16.3558841,13.3307317 L16.3558841,11.8208893 L16.3558841,6.20060624 L16.3558841,4.49419653 L16.3558841,4.49419653 L16.3558841,2.08913781 C16.3558841,1.58166014 16.6152928,1.28488206 16.989229,1.28488206 C17.1351304,1.28488206 17.298887,1.33010539 17.4710609,1.42594801 L27.6604406,7.08991268 C28.2738899,7.43088628 28.2738899,7.98872629 27.6604406,8.32969989 L27.6604406,8.32969989 Z M28.1203362,11.8208893 L28.1203362,11.8208893 C28.1205913,12.0457212 27.9672928,12.270553 27.6604406,12.4411683 L17.4710609,18.105133 C17.2986319,18.2009756 17.1353855,18.2461989 16.989229,18.2461989 C16.6152928,18.2461989 16.3558841,17.9494209 16.3558841,17.4419432 L16.3558841,16.321895 C16.5484638,16.4025775 16.7609391,16.4475439 16.989229,16.4475439 C17.3147014,16.4475439 17.6427246,16.3570973 17.9638609,16.1785165 L28.1203362,10.5327953 L28.1203362,11.8208893 Z M29.1406261,11.8208893 L29.1406261,7.71019171 L29.1406261,7.70993476 C29.1406261,7.09273913 28.7809739,6.53901034 28.1534957,6.19007126 L17.9641159,0.526106594 C17.6429797,0.347525846 17.3149565,0.257079193 16.989229,0.257079193 C16.0309217,0.257079193 15.3355942,1.02741744 15.3355942,2.08913781 L15.3355942,3.3733775 L15.3355942,3.3738914 L15.3355942,14.6154853 L15.3355942,14.6157422 L15.3355942,18.7269537 C15.3355942,19.7884171 16.0309217,20.5590123 16.989229,20.5590123 C17.3147014,20.5590123 17.6427246,20.4685657 17.9641159,20.2899849 L28.1532406,14.6260203 C28.7807188,14.2770812 29.1406261,13.7230955 29.1406261,13.1061568 L29.1406261,11.8216601 L29.1406261,11.8211462 L29.1406261,11.8208893 L29.1406261,11.8208893 Z" id="Fill-3" fill="#011E30" mask="url(#mask-2)"></path>
    </g>
    <path d="M41.3333333,21.5111111 C41.3333333,21.9022222 41.5292076,22.0977778 41.920956,22.0977778 L42.490772,22.0977778 C42.8825204,22.0977778 43.0783947,21.9022222 43.0783947,21.5111111 L43.0783947,16.7288889 L46.8890389,16.7288889 C47.2807873,16.7288889 47.4766616,16.5333333 47.4766616,16.1422222 L47.4766616,15.7866667 C47.4766616,15.4133333 47.2807873,15.2 46.8890389,15.2 L43.0783947,15.2 L43.0783947,11.0755556 L47.6725358,11.0755556 C48.0464775,11.0755556 48.2601585,10.8622222 48.2601585,10.4888889 L48.2601585,10.1333333 C48.2601585,9.74222222 48.0464775,9.54666667 47.6725358,9.54666667 L41.920956,9.54666667 C41.5292076,9.54666667 41.3333333,9.74222222 41.3333333,10.1333333 L41.3333333,21.5111111 Z M49.6312781,21.5111111 C49.6312781,21.9022222 49.8449591,22.0977778 50.2189008,22.0977778 L50.77091,22.0977778 C51.1626585,22.0977778 51.3585327,21.9022222 51.3585327,21.5111111 L51.3585327,18.3822222 C51.3585327,16.6044444 52.2132566,14.7022222 53.9761247,14.7022222 C54.38568,14.7022222 54.6171677,14.5066667 54.6171677,14.1155556 L54.6171677,13.6177778 C54.6171677,13.2266667 54.456907,13.0311111 54.0473517,13.0311111 C52.6940389,13.0311111 51.6790542,14.2044444 51.2873057,15.3955556 L51.2516922,15.3955556 C51.2516922,15.3955556 51.3051125,15.0933333 51.3051125,14.72 L51.3051125,13.6888889 C51.3051125,13.2977778 51.1092382,13.1022222 50.7174898,13.1022222 L50.2189008,13.1022222 C49.8449591,13.1022222 49.6312781,13.2977778 49.6312781,13.6888889 L49.6312781,21.5111111 Z M55.1157566,17.6 C55.1157566,20.2666667 57.0566922,22.3111111 59.8879652,22.3111111 C61.3303119,22.3111111 62.3987168,21.7244444 62.9329192,21.3511111 C63.2356339,21.1733333 63.2890542,20.8711111 63.1109867,20.5688889 L62.950726,20.3022222 C62.7548517,19.9644444 62.4877505,19.9288889 62.1494223,20.1066667 C61.7398671,20.4088889 60.9741769,20.8177778 59.9948057,20.8177778 C58.3921984,20.8177778 56.9854652,19.7333333 56.8786247,17.7777778 L62.8973057,17.7777778 C63.2534407,17.7777778 63.5027352,17.4933333 63.5027352,17.1733333 C63.5027352,14.6666667 62.1138088,12.8888889 59.620864,12.8888889 C57.0566922,12.8888889 55.1157566,14.7377778 55.1157566,17.6 L55.1157566,17.6 Z M56.9498517,16.64 C57.1991462,15.1288889 58.2675511,14.24 59.5852505,14.24 C60.7783027,14.24 61.7220603,15.0577778 61.7754806,16.64 L56.9498517,16.64 Z M64.8204346,17.6 C64.8204346,20.2666667 66.7613701,22.3111111 69.5926431,22.3111111 C71.0349898,22.3111111 72.1033947,21.7244444 72.6375971,21.3511111 C72.9403119,21.1733333 72.9937321,20.8711111 72.8156646,20.5688889 L72.6554039,20.3022222 C72.4595297,19.9644444 72.1924284,19.9288889 71.8541002,20.1066667 C71.444545,20.4088889 70.6788548,20.8177778 69.6994836,20.8177778 C68.0968763,20.8177778 66.6901431,19.7333333 66.5833027,17.7777778 L72.6019836,17.7777778 C72.9581186,17.7777778 73.2074131,17.4933333 73.2074131,17.1733333 C73.2074131,14.6666667 71.8184867,12.8888889 69.3255419,12.8888889 C66.7613701,12.8888889 64.8204346,14.7377778 64.8204346,17.6 L64.8204346,17.6 Z M66.6545297,16.64 C66.9038241,15.1288889 67.972229,14.24 69.2899284,14.24 C70.4829806,14.24 71.4267382,15.0577778 71.4801585,16.64 L66.6545297,16.64 Z M75.3442229,21.5111111 C75.3442229,21.9022222 75.5400971,22.0977778 75.9318456,22.0977778 L82.1464008,22.0977778 C82.5203425,22.0977778 82.7340235,21.9022222 82.7340235,21.5111111 L82.7340235,21.1555556 C82.7340235,20.7644444 82.5203425,20.5688889 82.1464008,20.5688889 L77.0892843,20.5688889 L77.0892843,10.1333333 C77.0892843,9.74222222 76.89341,9.54666667 76.5016616,9.54666667 L75.9318456,9.54666667 C75.5400971,9.54666667 75.3442229,9.74222222 75.3442229,10.1333333 L75.3442229,21.5111111 Z M83.8558487,18.8622222 C83.8558487,21.2444444 84.8886401,22.3111111 86.9186094,22.3111111 C88.6814775,22.3111111 89.8745297,21.0844444 90.2662781,20.1955556 L90.3018916,20.1955556 C90.3018916,20.1955556 90.2484714,20.4444444 90.2484714,20.7111111 L90.2484714,21.5111111 C90.2484714,21.9022222 90.4443456,22.0977778 90.8360941,22.0977778 L91.334683,22.0977778 C91.7086247,22.0977778 91.9223057,21.9022222 91.9223057,21.5111111 L91.9223057,13.6888889 C91.9223057,13.2977778 91.7086247,13.1022222 91.334683,13.1022222 L90.7826738,13.1022222 C90.3909254,13.1022222 90.1950511,13.2977778 90.1950511,13.6888889 L90.1950511,17.3155556 C90.1950511,19.0933333 89.1088395,20.7111111 87.2569376,20.7111111 C85.8323978,20.7111111 85.5652965,19.7155556 85.5652965,18.4711111 L85.5652965,13.6888889 C85.5652965,13.2977778 85.3694223,13.1022222 84.9954806,13.1022222 L84.4434714,13.1022222 C84.0517229,13.1022222 83.8558487,13.2977778 83.8558487,13.6888889 L83.8558487,18.8622222 Z M94.4152505,21.5111111 C94.4152505,21.9022222 94.6289315,22.0977778 95.0028732,22.0977778 L95.5548824,22.0977778 C95.9466309,22.0977778 96.1425051,21.9022222 96.1425051,21.5111111 L96.1425051,17.7955556 C96.1425051,15.9288889 97.4067843,14.4711111 99.1518456,14.4711111 C100.594192,14.4711111 100.843487,15.4666667 100.843487,16.7288889 L100.843487,21.5111111 C100.843487,21.9022222 101.057168,22.0977778 101.431109,22.0977778 L101.983119,22.0977778 C102.374867,22.0977778 102.570741,21.9022222 102.570741,21.5111111 L102.570741,16.3377778 C102.570741,14.0444444 101.609177,12.8888889 99.4901738,12.8888889 C97.5136247,12.8888889 96.4274131,14.2222222 96.0712781,15.0044444 L96.0356646,15.0044444 C96.0356646,15.0044444 96.0890849,14.7555556 96.0890849,14.4888889 L96.0890849,13.6888889 C96.0890849,13.2977778 95.8932106,13.1022222 95.5014622,13.1022222 L95.0028732,13.1022222 C94.6289315,13.1022222 94.4152505,13.2977778 94.4152505,13.6888889 L94.4152505,21.5111111 Z M104.351416,17.6 C104.351416,20.3022222 106.327965,22.3111111 109.159238,22.3111111 C110.779652,22.3111111 111.865864,21.6177778 112.364453,21.2088889 C112.649361,21.0133333 112.702781,20.7288889 112.524714,20.4266667 L112.38226,20.16 C112.168579,19.8222222 111.901478,19.7866667 111.580956,20 C111.153594,20.32 110.370097,20.8177778 109.283885,20.8177778 C107.431984,20.8177778 106.114284,19.4133333 106.114284,17.5822222 C106.114284,15.7333333 107.431984,14.3822222 109.248272,14.3822222 C110.19203,14.3822222 110.886493,14.7911111 111.260435,15.0577778 C111.598763,15.2533333 111.848057,15.2355556 112.061738,14.9155556 L112.239806,14.6488889 C112.453487,14.3466667 112.43568,14.0444444 112.132965,13.8488889 C111.652183,13.4755556 110.672812,12.8888889 109.159238,12.8888889 C106.345772,12.8888889 104.351416,14.9333333 104.351416,17.6 L104.351416,17.6 Z M114.412229,21.5111111 C114.412229,21.9022222 114.608103,22.0977778 114.999852,22.0977778 L115.551861,22.0977778 C115.925803,22.0977778 116.121677,21.9022222 116.121677,21.5111111 L116.121677,17.8311111 C116.121677,15.8933333 117.403763,14.4711111 119.131017,14.4711111 C120.573364,14.4711111 120.840465,15.4666667 120.840465,16.7288889 L120.840465,21.5111111 C120.840465,21.9022222 121.036339,22.0977778 121.428088,22.0977778 L121.980097,22.0977778 C122.354039,22.0977778 122.56772,21.9022222 122.56772,21.5111111 L122.56772,16.3377778 C122.56772,14.0444444 121.588349,12.8888889 119.469346,12.8888889 C117.670864,12.8888889 116.495619,14.08 116.10387,14.9511111 L116.068257,14.9511111 C116.068257,14.9511111 116.121677,14.6311111 116.121677,14.2044444 L116.121677,10.1333333 C116.121677,9.74222222 115.925803,9.54666667 115.551861,9.54666667 L114.999852,9.54666667 C114.608103,9.54666667 114.412229,9.74222222 114.412229,10.1333333 L114.412229,21.5111111 Z M128.960343,15.7511111 C128.960343,19.4311111 131.506708,22.3111111 135.388579,22.3111111 C137.685649,22.3111111 139.21703,21.2444444 139.858073,20.7111111 C140.142981,20.4622222 140.160787,20.1777778 139.947106,19.8933333 L139.680005,19.5377778 C139.448517,19.2355556 139.163609,19.2355556 138.860895,19.4666667 C138.308885,19.8933333 137.098027,20.6933333 135.441999,20.6933333 C132.539499,20.6933333 130.776631,18.4 130.776631,15.7333333 C130.776631,13.0844444 132.503885,10.9511111 135.424192,10.9511111 C136.937766,10.9511111 138.041784,11.5911111 138.575987,11.9466667 C138.914315,12.16 139.181416,12.1244444 139.395097,11.8044444 L139.626585,11.4488889 C139.822459,11.1288889 139.804652,10.8444444 139.519744,10.6311111 C138.896508,10.1688889 137.507582,9.33333333 135.352965,9.33333333 C131.595741,9.33333333 128.960343,12.1066667 128.960343,15.7511111 L128.960343,15.7511111 Z M142.333211,21.5111111 C142.333211,21.9022222 142.529085,22.0977778 142.920833,22.0977778 L143.490649,22.0977778 C143.882398,22.0977778 144.078272,21.9022222 144.078272,21.5111111 L144.078272,10.1333333 C144.078272,9.74222222 143.882398,9.54666667 143.490649,9.54666667 L142.920833,9.54666667 C142.529085,9.54666667 142.333211,9.74222222 142.333211,10.1333333 L142.333211,21.5111111 Z" id="FreeLunch-CI" fill="#011E30"></path>
    <rect id="Rectangle-58" x="0" y="0" width="144" height="32"></rect>
  </g>
</svg>
